<svg xmlns="http://www.w3.org/2000/svg" width="256" height="256" viewBox="0 0 100 100"><rect width="100" height="100" rx="20" fill="#ffffff"></rect><path fill="#004ac6" d="M28.99 38.15L18.04 71.82L8.15 71.82L23.22 28.18L35.11 28.18L50.15 71.82L40.26 71.82L29.33 38.15L28.99 38.15ZM17.42 61.87L17.42 54.67L40.77 54.67L40.77 61.87L17.42 61.87ZM91.85 43.46L91.85 43.46L82.51 43.46Q82.26 41.65 81.47 40.23Q80.68 38.81 79.45 37.81Q78.21 36.81 76.60 36.28Q74.99 35.75 73.12 35.75L73.12 35.75Q69.73 35.75 67.22 37.42Q64.70 39.09 63.32 42.28Q61.93 45.46 61.93 50.00L61.93 50.00Q61.93 54.67 63.33 57.84Q64.72 61.02 67.24 62.63Q69.75 64.25 73.05 64.25L73.05 64.25Q74.91 64.25 76.50 63.76Q78.08 63.27 79.32 62.33Q80.55 61.38 81.37 60.01Q82.19 58.65 82.51 56.90L82.51 56.90L91.85 56.95Q91.48 59.95 90.05 62.73Q88.61 65.51 86.19 67.70Q83.77 69.88 80.44 71.15Q77.10 72.41 72.90 72.41L72.90 72.41Q67.07 72.41 62.48 69.77Q57.88 67.13 55.23 62.12Q52.58 57.12 52.58 50.00L52.58 50.00Q52.58 42.86 55.26 37.86Q57.95 32.85 62.55 30.22Q67.15 27.59 72.90 27.59L72.90 27.59Q76.70 27.59 79.95 28.65Q83.20 29.72 85.71 31.75Q88.22 33.79 89.81 36.73Q91.40 39.67 91.85 43.46Z"></path></svg>