<svg xmlns="http://www.w3.org/2000/svg" width="256" height="256" viewBox="0 0 100 100"><rect width="100" height="100" rx="20" fill="#ffffff"></rect><path fill="#2563eb" d="M4.42 27.56L16.42 27.56L16.42 33.08L10.82 33.08L10.82 66.88L16.42 66.88L16.42 72.44L4.42 72.44L4.42 27.56ZM41.66 64.08L39.98 59.12L29.50 59.12L27.82 64.08L20.66 64.08L30.82 36L38.74 36L48.90 64.08L41.66 64.08ZM31.30 53.84L38.22 53.84L34.74 43.56L31.30 53.84ZM50.82 50Q50.82 45.84 52.62 42.58Q54.42 39.32 57.64 37.50Q60.86 35.68 64.94 35.68L64.94 35.68Q69.94 35.68 73.50 38.32Q77.06 40.96 78.26 45.52L78.26 45.52L70.74 45.52Q69.90 43.76 68.36 42.84Q66.82 41.92 64.86 41.92L64.86 41.92Q61.70 41.92 59.74 44.12Q57.78 46.32 57.78 50L57.78 50Q57.78 53.68 59.74 55.88Q61.70 58.08 64.86 58.08L64.86 58.08Q66.82 58.08 68.36 57.16Q69.90 56.24 70.74 54.48L70.74 54.48L78.26 54.48Q77.06 59.04 73.50 61.66Q69.94 64.28 64.94 64.28L64.94 64.28Q60.86 64.28 57.64 62.46Q54.42 60.64 52.62 57.40Q50.82 54.16 50.82 50L50.82 50ZM95.58 27.56L95.58 72.44L83.58 72.44L83.58 66.88L89.18 66.88L89.18 33.08L83.58 33.08L83.58 27.56L95.58 27.56Z"></path></svg>